<svg id="visual" viewBox="0 0 540 960" width="540" height="960" xmlns="http://www.w3.org/2000/svg" xmlns:xlink="http://www.w3.org/1999/xlink" version="1.1"><path d="M0 807L18 795.8C36 784.7 72 762.3 108 769.2C144 776 180 812 216 819.5C252 827 288 806 324 792.5C360 779 396 773 432 762.3C468 751.7 504 736.3 522 728.7L540 721L540 961L522 961C504 961 468 961 432 961C396 961 360 961 324 961C288 961 252 961 216 961C180 961 144 961 108 961C72 961 36 961 18 961L0 961Z" fill="#fcaf3c"></path><path d="M0 892L18 891.8C36 891.7 72 891.3 108 885.3C144 879.3 180 867.7 216 857.7C252 847.7 288 839.3 324 834C360 828.7 396 826.3 432 820C468 813.7 504 803.3 522 798.2L540 793L540 961L522 961C504 961 468 961 432 961C396 961 360 961 324 961C288 961 252 961 216 961C180 961 144 961 108 961C72 961 36 961 18 961L0 961Z" fill="#f3664c"></path><path d="M0 874L18 882.8C36 891.7 72 909.3 108 905.8C144 902.3 180 877.7 216 871.8C252 866 288 879 324 886.5C360 894 396 896 432 894.7C468 893.3 504 888.7 522 886.3L540 884L540 961L522 961C504 961 468 961 432 961C396 961 360 961 324 961C288 961 252 961 216 961C180 961 144 961 108 961C72 961 36 961 18 961L0 961Z" fill="#c62368"></path></svg>